<?xml version="1.0" encoding="UTF-8"?>
<svg viewBox="0 0 634 599" version="1.1" xmlns="http://www.w3.org/2000/svg" xmlns:xlink="http://www.w3.org/1999/xlink">
    <!-- Generator: Sketch 51.3 (57544) - http://www.bohemiancoding.com/sketch -->
    <title>town-hall</title>
    <desc>Created with Sketch.</desc>
    <defs>
        <polygon id="path-1" points="0.0944800799 0.793002634 71.789983 4.23853726 0.0944800799 7.01115965"></polygon>
        <filter x="-114.3%" y="-85.7%" width="328.6%" height="314.3%" filterUnits="objectBoundingBox" id="filter-3">
            <feOffset dx="0" dy="2" in="SourceAlpha" result="shadowOffsetOuter1"></feOffset>
            <feGaussianBlur stdDeviation="2" in="shadowOffsetOuter1" result="shadowBlurOuter1"></feGaussianBlur>
            <feColorMatrix values="0 0 0 0 0   0 0 0 0 0   0 0 0 0 0  0 0 0 0.5 0" type="matrix" in="shadowBlurOuter1" result="shadowMatrixOuter1"></feColorMatrix>
            <feMerge>
                <feMergeNode in="shadowMatrixOuter1"></feMergeNode>
                <feMergeNode in="SourceGraphic"></feMergeNode>
            </feMerge>
        </filter>
        <filter x="-114.3%" y="-85.7%" width="328.6%" height="314.3%" filterUnits="objectBoundingBox" id="filter-4">
            <feOffset dx="0" dy="2" in="SourceAlpha" result="shadowOffsetOuter1"></feOffset>
            <feGaussianBlur stdDeviation="2" in="shadowOffsetOuter1" result="shadowBlurOuter1"></feGaussianBlur>
            <feColorMatrix values="0 0 0 0 0   0 0 0 0 0   0 0 0 0 0  0 0 0 0.5 0" type="matrix" in="shadowBlurOuter1" result="shadowMatrixOuter1"></feColorMatrix>
            <feMerge>
                <feMergeNode in="shadowMatrixOuter1"></feMergeNode>
                <feMergeNode in="SourceGraphic"></feMergeNode>
            </feMerge>
        </filter>
        <filter x="-114.3%" y="-85.7%" width="328.6%" height="314.3%" filterUnits="objectBoundingBox" id="filter-5">
            <feOffset dx="0" dy="2" in="SourceAlpha" result="shadowOffsetOuter1"></feOffset>
            <feGaussianBlur stdDeviation="2" in="shadowOffsetOuter1" result="shadowBlurOuter1"></feGaussianBlur>
            <feColorMatrix values="0 0 0 0 0   0 0 0 0 0   0 0 0 0 0  0 0 0 0.5 0" type="matrix" in="shadowBlurOuter1" result="shadowMatrixOuter1"></feColorMatrix>
            <feMerge>
                <feMergeNode in="shadowMatrixOuter1"></feMergeNode>
                <feMergeNode in="SourceGraphic"></feMergeNode>
            </feMerge>
        </filter>
        <filter x="-114.3%" y="-85.7%" width="328.6%" height="314.3%" filterUnits="objectBoundingBox" id="filter-6">
            <feOffset dx="0" dy="2" in="SourceAlpha" result="shadowOffsetOuter1"></feOffset>
            <feGaussianBlur stdDeviation="2" in="shadowOffsetOuter1" result="shadowBlurOuter1"></feGaussianBlur>
            <feColorMatrix values="0 0 0 0 0   0 0 0 0 0   0 0 0 0 0  0 0 0 0.5 0" type="matrix" in="shadowBlurOuter1" result="shadowMatrixOuter1"></feColorMatrix>
            <feMerge>
                <feMergeNode in="shadowMatrixOuter1"></feMergeNode>
                <feMergeNode in="SourceGraphic"></feMergeNode>
            </feMerge>
        </filter>
    </defs>
    <g id="town-hall" stroke="none" stroke-width="1" fill="none" fill-rule="evenodd">
        <g id="Group-13" transform="translate(2.000000, 1.000000)">
            <g id="Group-10" transform="translate(307.000000, 212.000000)">
                <g id="Group-11" transform="translate(3.000000, 5.000000)">
                    <mask id="mask-2" fill="white">
                        <use xlink:href="#path-1"></use>
                    </mask>
                    <use id="Path-15" fill="#A6283C" fill-rule="nonzero" xlink:href="#path-1"></use>
                    <rect id="Rectangle-7" fill="#F4F5F6" fill-rule="nonzero" mask="url(#mask-2)" x="5" y="-2" width="1.5" height="12"></rect>
                    <rect id="Rectangle-7" fill="#F4F5F6" fill-rule="nonzero" mask="url(#mask-2)" transform="translate(35.250000, 4.000000) rotate(-270.000000) translate(-35.250000, -4.000000) " x="34.5" y="-33.5" width="1.5" height="75"></rect>
                </g>
                <path d="M2.5,111.5 L2.5,3.5" id="Line" stroke="#663921" stroke-width="2" stroke-linecap="square" fill-rule="nonzero"></path>
                <circle id="Oval-2" fill="#663921" fill-rule="nonzero" cx="2.5" cy="2.5" r="2.5"></circle>
            </g>
            <g id="Group-12" fill-rule="nonzero">
                <g id="Group" transform="translate(3.000000, 0.000000)">
                    <polygon id="Path-2" fill="#8E5538" points="125.62173 32.0276916 104.976026 108.357812 104.976026 161.828233 87.9840743 186.704406 87.9840743 351.583578 0.484029129 400.039261 0.484029129 431.334737 3.72477154 436.173904 3.72477154 597.702602 621.781169 597.702602 621.781169 431.334737 624.57384 427.887333 624.57384 400.039261 523.799919 351.583578 523.799919 289.409605 515.023213 242.378605 505.851473 289.409605 505.851473 323.5 495.734212 323.5 495.734212 307.2474 493.475796 307.2474 493.475796 311.107619 481.290222 311.107619 481.290222 307.2474 478.783323 307.2474 478.783323 323.5 465.109792 323.5 465.109792 307.2474 462.937905 307.2474 462.937905 311.107619 450.783936 311.107619 450.783936 307.2474 448.355417 307.2474 448.355417 323.5 434.694528 323.5 434.694528 307.2474 432.351975 307.2474 432.351975 311.107619 419.780821 311.107619 419.780821 307.2474 417.430683 307.2474 417.430683 323.5 402.857044 323.5 402.857044 307.2474 400.71297 307.2474 400.71297 311.107619 389.109557 311.107619 389.109557 307.2474 386.947152 307.2474 386.947152 323.5 372.11625 323.5 372.11625 307.2474 369.928561 307.2474 369.928561 311.107619 358.543222 311.107619 358.543222 307.2474 356.66526 307.2474 356.66526 323.5 340.915289 323.5 340.915289 307.2474 339.060083 311.107619 327.109017 311.107619 327.109017 307.2474 324.983273 307.2474 324.983273 323.5 310.045547 323.5 310.045547 307.2474 308.036109 307.2474 308.036109 311.107619 297.343549 311.107619 297.343549 307.2474 295.027544 307.2474 295.027544 323.5 278.944457 323.5 278.944457 307.2474 276.912896 307.2474 276.912896 311.107619 266.621717 311.107619 266.621717 307.2474 264.70267 307.2474 264.70267 323.5 248.285203 323.5 248.285203 307.2474 246.282718 307.2474 246.282718 311.107619 236.530087 311.107619 236.530087 307.2474 234.518753 307.2474 234.518753 323.5 218.941344 323.5 218.941344 307.2474 216.771986 307.2474 216.771986 311.107619 204.569977 311.107619 204.569977 307.2474 202.141459 307.2474 202.141459 323.5 186.722706 323.5 186.722706 307.2474 184.636785 307.2474 184.636785 311.107619 172.523269 311.107619 172.523269 307.2474 170.232548 307.2474 170.232548 323.5 160.608107 323.5 158.556992 186.704406 145.074525 161.828233 145.074525 108.357812"></polygon>
                    <path d="M510.810454,296.060241 L510.810454,304.207648 L518.992576,304.207648 L518.992576,296.060241 C518.992576,293.033365 517.628889,291.519927 514.901515,291.519927 C512.174141,291.519927 510.810454,293.033365 510.810454,296.060241 Z" id="Path-5" fill="#663921"></path>
                    <path d="M119,296.540314 L119,304.687721 L127.182122,304.687721 L127.182122,296.540314 C127.182122,293.513438 125.818435,292 123.091061,292 C120.363687,292 119,293.513438 119,296.540314 Z" id="Path-5" fill="#663921"></path>
                    <polygon id="Path-3" fill="#94B07C" points="125.887694 0.073481233 125.887694 29.7944225 104.869564 106.779749 102.755981 106.779749 104.339833 108.430777 104.339833 161.710376 86.7804683 186.690749 159.474299 186.690749 146.007482 161.710376 146.007482 108.430777 147.600608 106.779749 145.410588 106.779749 126.570958 29.7944225"></polygon>
                    <polygon id="Path-4" fill="#94B07C" points="514.998533 225.101863 514.337388 242.41904 505.087243 289.356289 524.705736 289.356289 515.804728 242.41904"></polygon>
                    <polygon id="Path-4" fill="#94B07C" points="122.91129 225 122.250146 242.317177 113 289.254426 132.618494 289.254426 123.717486 242.317177"></polygon>
                </g>
                <g id="Group-7" transform="translate(231.000000, 553.000000)" fill="#663921">
                    <rect id="Rectangle-4" x="11" y="0" width="4" height="11"></rect>
                    <rect id="Rectangle-4" x="5" y="0" width="5" height="11"></rect>
                    <rect id="Rectangle-4" x="0" y="0" width="4" height="11"></rect>
                    <rect id="Rectangle-4" x="11" y="12" width="4" height="6"></rect>
                    <rect id="Rectangle-4" x="5" y="12" width="5" height="6"></rect>
                    <rect id="Rectangle-4" x="0" y="12" width="4" height="6"></rect>
                </g>
                <g id="Group-7" transform="translate(201.000000, 553.000000)" fill="#663921">
                    <rect id="Rectangle-4" x="11" y="0" width="4" height="11"></rect>
                    <rect id="Rectangle-4" x="5" y="0" width="5" height="11"></rect>
                    <rect id="Rectangle-4" x="0" y="0" width="4" height="11"></rect>
                    <rect id="Rectangle-4" x="11" y="12" width="4" height="6"></rect>
                    <rect id="Rectangle-4" x="5" y="12" width="5" height="6"></rect>
                    <rect id="Rectangle-4" x="0" y="12" width="4" height="6"></rect>
                </g>
                <g id="Group-7" transform="translate(171.000000, 553.000000)" fill="#663921">
                    <rect id="Rectangle-4" x="11" y="0" width="4" height="11"></rect>
                    <rect id="Rectangle-4" x="5" y="0" width="5" height="11"></rect>
                    <rect id="Rectangle-4" x="0" y="0" width="4" height="11"></rect>
                    <rect id="Rectangle-4" x="11" y="12" width="4" height="6"></rect>
                    <rect id="Rectangle-4" x="5" y="12" width="5" height="6"></rect>
                    <rect id="Rectangle-4" x="0" y="12" width="4" height="6"></rect>
                </g>
                <g id="Group-7" transform="translate(141.000000, 553.000000)" fill="#663921">
                    <rect id="Rectangle-4" x="11" y="0" width="4" height="11"></rect>
                    <rect id="Rectangle-4" x="5" y="0" width="5" height="11"></rect>
                    <rect id="Rectangle-4" x="0" y="0" width="4" height="11"></rect>
                    <rect id="Rectangle-4" x="11" y="12" width="4" height="6"></rect>
                    <rect id="Rectangle-4" x="5" y="12" width="5" height="6"></rect>
                    <rect id="Rectangle-4" x="0" y="12" width="4" height="6"></rect>
                </g>
                <g id="Group-7" transform="translate(111.000000, 553.000000)" fill="#663921">
                    <rect id="Rectangle-4" x="11" y="0" width="4" height="11"></rect>
                    <rect id="Rectangle-4" x="5" y="0" width="5" height="11"></rect>
                    <rect id="Rectangle-4" x="0" y="0" width="4" height="11"></rect>
                    <rect id="Rectangle-4" x="11" y="12" width="4" height="6"></rect>
                    <rect id="Rectangle-4" x="5" y="12" width="5" height="6"></rect>
                    <rect id="Rectangle-4" x="0" y="12" width="4" height="6"></rect>
                </g>
                <g id="Group-7" transform="translate(497.000000, 553.000000)" fill="#663921">
                    <rect id="Rectangle-4" x="11" y="0" width="4" height="11"></rect>
                    <rect id="Rectangle-4" x="5" y="0" width="5" height="11"></rect>
                    <rect id="Rectangle-4" x="0" y="0" width="4" height="11"></rect>
                    <rect id="Rectangle-4" x="11" y="12" width="4" height="6"></rect>
                    <rect id="Rectangle-4" x="5" y="12" width="5" height="6"></rect>
                    <rect id="Rectangle-4" x="0" y="12" width="4" height="6"></rect>
                </g>
                <g id="Group-7" transform="translate(467.000000, 553.000000)" fill="#663921">
                    <rect id="Rectangle-4" x="11" y="0" width="4" height="11"></rect>
                    <rect id="Rectangle-4" x="5" y="0" width="5" height="11"></rect>
                    <rect id="Rectangle-4" x="0" y="0" width="4" height="11"></rect>
                    <rect id="Rectangle-4" x="11" y="12" width="4" height="6"></rect>
                    <rect id="Rectangle-4" x="5" y="12" width="5" height="6"></rect>
                    <rect id="Rectangle-4" x="0" y="12" width="4" height="6"></rect>
                </g>
                <g id="Group-7" transform="translate(437.000000, 553.000000)" fill="#663921">
                    <rect id="Rectangle-4" x="11" y="0" width="4" height="11"></rect>
                    <rect id="Rectangle-4" x="5" y="0" width="5" height="11"></rect>
                    <rect id="Rectangle-4" x="0" y="0" width="4" height="11"></rect>
                    <rect id="Rectangle-4" x="11" y="12" width="4" height="6"></rect>
                    <rect id="Rectangle-4" x="5" y="12" width="5" height="6"></rect>
                    <rect id="Rectangle-4" x="0" y="12" width="4" height="6"></rect>
                </g>
                <g id="Group-7" transform="translate(407.000000, 553.000000)" fill="#663921">
                    <rect id="Rectangle-4" x="11" y="0" width="4" height="11"></rect>
                    <rect id="Rectangle-4" x="5" y="0" width="5" height="11"></rect>
                    <rect id="Rectangle-4" x="0" y="0" width="4" height="11"></rect>
                    <rect id="Rectangle-4" x="11" y="12" width="4" height="6"></rect>
                    <rect id="Rectangle-4" x="5" y="12" width="5" height="6"></rect>
                    <rect id="Rectangle-4" x="0" y="12" width="4" height="6"></rect>
                </g>
                <g id="Group-7" transform="translate(377.000000, 553.000000)" fill="#663921">
                    <rect id="Rectangle-4" x="11" y="0" width="4" height="11"></rect>
                    <rect id="Rectangle-4" x="5" y="0" width="5" height="11"></rect>
                    <rect id="Rectangle-4" x="0" y="0" width="4" height="11"></rect>
                    <rect id="Rectangle-4" x="11" y="12" width="4" height="6"></rect>
                    <rect id="Rectangle-4" x="5" y="12" width="5" height="6"></rect>
                    <rect id="Rectangle-4" x="0" y="12" width="4" height="6"></rect>
                </g>
                <g id="Group-6" transform="translate(111.000000, 516.000000)" fill="#663921">
                    <rect id="Rectangle-3" x="0" y="0" width="7" height="11"></rect>
                    <rect id="Rectangle-3" x="0" y="12" width="7" height="5"></rect>
                    <rect id="Rectangle-3" x="8" y="12" width="7" height="5"></rect>
                    <rect id="Rectangle-3" x="8" y="0" width="7" height="11"></rect>
                </g>
                <g id="Group-6" transform="translate(141.000000, 516.000000)" fill="#663921">
                    <rect id="Rectangle-3" x="0" y="0" width="7" height="11"></rect>
                    <rect id="Rectangle-3" x="0" y="12" width="7" height="5"></rect>
                    <rect id="Rectangle-3" x="8" y="12" width="7" height="5"></rect>
                    <rect id="Rectangle-3" x="8" y="0" width="7" height="11"></rect>
                </g>
                <g id="Group-6" transform="translate(171.000000, 516.000000)" fill="#663921">
                    <rect id="Rectangle-3" x="0" y="0" width="7" height="11"></rect>
                    <rect id="Rectangle-3" x="0" y="12" width="7" height="5"></rect>
                    <rect id="Rectangle-3" x="8" y="12" width="7" height="5"></rect>
                    <rect id="Rectangle-3" x="8" y="0" width="7" height="11"></rect>
                </g>
                <g id="Group-6" transform="translate(201.000000, 516.000000)" fill="#663921">
                    <rect id="Rectangle-3" x="0" y="0" width="7" height="11"></rect>
                    <rect id="Rectangle-3" x="0" y="12" width="7" height="5"></rect>
                    <rect id="Rectangle-3" x="8" y="12" width="7" height="5"></rect>
                    <rect id="Rectangle-3" x="8" y="0" width="7" height="11"></rect>
                </g>
                <g id="Group-6" transform="translate(231.000000, 516.000000)" fill="#663921">
                    <rect id="Rectangle-3" x="0" y="0" width="7" height="11"></rect>
                    <rect id="Rectangle-3" x="0" y="12" width="7" height="5"></rect>
                    <rect id="Rectangle-3" x="8" y="12" width="7" height="5"></rect>
                    <rect id="Rectangle-3" x="8" y="0" width="7" height="11"></rect>
                </g>
                <g id="Group-6" transform="translate(377.000000, 516.000000)" fill="#663921">
                    <rect id="Rectangle-3" x="0" y="0" width="7" height="11"></rect>
                    <rect id="Rectangle-3" x="0" y="12" width="7" height="5"></rect>
                    <rect id="Rectangle-3" x="8" y="12" width="7" height="5"></rect>
                    <rect id="Rectangle-3" x="8" y="0" width="7" height="11"></rect>
                </g>
                <g id="Group-6" transform="translate(407.000000, 516.000000)" fill="#663921">
                    <rect id="Rectangle-3" x="0" y="0" width="7" height="11"></rect>
                    <rect id="Rectangle-3" x="0" y="12" width="7" height="5"></rect>
                    <rect id="Rectangle-3" x="8" y="12" width="7" height="5"></rect>
                    <rect id="Rectangle-3" x="8" y="0" width="7" height="11"></rect>
                </g>
                <g id="Group-6" transform="translate(437.000000, 516.000000)" fill="#663921">
                    <rect id="Rectangle-3" x="0" y="0" width="7" height="11"></rect>
                    <rect id="Rectangle-3" x="0" y="12" width="7" height="5"></rect>
                    <rect id="Rectangle-3" x="8" y="12" width="7" height="5"></rect>
                    <rect id="Rectangle-3" x="8" y="0" width="7" height="11"></rect>
                </g>
                <g id="Group-6" transform="translate(467.000000, 516.000000)" fill="#663921">
                    <rect id="Rectangle-3" x="0" y="0" width="7" height="11"></rect>
                    <rect id="Rectangle-3" x="0" y="12" width="7" height="5"></rect>
                    <rect id="Rectangle-3" x="8" y="12" width="7" height="5"></rect>
                    <rect id="Rectangle-3" x="8" y="0" width="7" height="11"></rect>
                </g>
                <g id="Group-6" transform="translate(497.000000, 516.000000)" fill="#663921">
                    <rect id="Rectangle-3" x="0" y="0" width="7" height="11"></rect>
                    <rect id="Rectangle-3" x="0" y="12" width="7" height="5"></rect>
                    <rect id="Rectangle-3" x="8" y="12" width="7" height="5"></rect>
                    <rect id="Rectangle-3" x="8" y="0" width="7" height="11"></rect>
                </g>
                <g id="Group-5" transform="translate(34.000000, 456.000000)" fill="#663921">
                    <rect id="Rectangle-2" x="30" y="0" width="9" height="9"></rect>
                    <rect id="Rectangle-2" x="20" y="0" width="9" height="9"></rect>
                    <rect id="Rectangle-2" x="10" y="0" width="9" height="9"></rect>
                    <rect id="Rectangle-2" x="0" y="0" width="9" height="9"></rect>
                    <rect id="Rectangle-2" x="30" y="10" width="9" height="9"></rect>
                    <rect id="Rectangle-2" x="20" y="10" width="9" height="9"></rect>
                    <rect id="Rectangle-2" x="10" y="10" width="9" height="9"></rect>
                    <rect id="Rectangle-2" x="0" y="10" width="9" height="9"></rect>
                    <rect id="Rectangle-2" x="30" y="20" width="9" height="9"></rect>
                    <rect id="Rectangle-2" x="20" y="20" width="9" height="9"></rect>
                    <rect id="Rectangle-2" x="10" y="20" width="9" height="9"></rect>
                    <rect id="Rectangle-2" x="0" y="20" width="9" height="9"></rect>
                    <rect id="Rectangle-2" x="30" y="30" width="9" height="9"></rect>
                    <rect id="Rectangle-2" x="20" y="30" width="9" height="9"></rect>
                    <rect id="Rectangle-2" x="10" y="30" width="9" height="9"></rect>
                    <rect id="Rectangle-2" x="0" y="30" width="9" height="9"></rect>
                </g>
                <g id="Group-5" transform="translate(554.000000, 456.000000)" fill="#663921">
                    <rect id="Rectangle-2" x="30" y="0" width="9" height="9"></rect>
                    <rect id="Rectangle-2" x="20" y="0" width="9" height="9"></rect>
                    <rect id="Rectangle-2" x="10" y="0" width="9" height="9"></rect>
                    <rect id="Rectangle-2" x="0" y="0" width="9" height="9"></rect>
                    <rect id="Rectangle-2" x="30" y="10" width="9" height="9"></rect>
                    <rect id="Rectangle-2" x="20" y="10" width="9" height="9"></rect>
                    <rect id="Rectangle-2" x="10" y="10" width="9" height="9"></rect>
                    <rect id="Rectangle-2" x="0" y="10" width="9" height="9"></rect>
                    <rect id="Rectangle-2" x="30" y="20" width="9" height="9"></rect>
                    <rect id="Rectangle-2" x="20" y="20" width="9" height="9"></rect>
                    <rect id="Rectangle-2" x="10" y="20" width="9" height="9"></rect>
                    <rect id="Rectangle-2" x="0" y="20" width="9" height="9"></rect>
                    <rect id="Rectangle-2" x="30" y="30" width="9" height="9"></rect>
                    <rect id="Rectangle-2" x="20" y="30" width="9" height="9"></rect>
                    <rect id="Rectangle-2" x="10" y="30" width="9" height="9"></rect>
                    <rect id="Rectangle-2" x="0" y="30" width="9" height="9"></rect>
                </g>
                <g id="Group-5" transform="translate(83.000000, 464.000000)" fill="#663921">
                    <rect id="Rectangle-2" x="0" y="0" width="6" height="9"></rect>
                    <rect id="Rectangle-2" x="0" y="0" width="6" height="9"></rect>
                    <rect id="Rectangle-2" x="7" y="0" width="6" height="9"></rect>
                    <rect id="Rectangle-2" x="14" y="0" width="6" height="9"></rect>
                    <rect id="Rectangle-2" x="0" y="10" width="6" height="9"></rect>
                    <rect id="Rectangle-2" x="7" y="10" width="6" height="9"></rect>
                    <rect id="Rectangle-2" x="14" y="10" width="6" height="9"></rect>
                    <rect id="Rectangle-2" x="0" y="20" width="6" height="9"></rect>
                    <rect id="Rectangle-2" x="7" y="20" width="6" height="9"></rect>
                    <rect id="Rectangle-2" x="14" y="20" width="6" height="9"></rect>
                </g>
                <g id="Group-5" transform="translate(118.000000, 464.000000)" fill="#663921">
                    <rect id="Rectangle-2" x="0" y="0" width="6" height="9"></rect>
                    <rect id="Rectangle-2" x="7" y="0" width="6" height="9"></rect>
                    <rect id="Rectangle-2" x="14" y="0" width="6" height="9"></rect>
                    <rect id="Rectangle-2" x="0" y="10" width="6" height="9"></rect>
                    <rect id="Rectangle-2" x="7" y="10" width="6" height="9"></rect>
                    <rect id="Rectangle-2" x="14" y="10" width="6" height="9"></rect>
                    <rect id="Rectangle-2" x="0" y="20" width="6" height="9"></rect>
                    <rect id="Rectangle-2" x="7" y="20" width="6" height="9"></rect>
                    <rect id="Rectangle-2" x="14" y="20" width="6" height="9"></rect>
                </g>
                <g id="Group-5" transform="translate(153.000000, 464.000000)" fill="#663921">
                    <rect id="Rectangle-2" x="0" y="0" width="6" height="9"></rect>
                    <rect id="Rectangle-2" x="7" y="0" width="6" height="9"></rect>
                    <rect id="Rectangle-2" x="14" y="0" width="6" height="9"></rect>
                    <rect id="Rectangle-2" x="0" y="10" width="6" height="9"></rect>
                    <rect id="Rectangle-2" x="7" y="10" width="6" height="9"></rect>
                    <rect id="Rectangle-2" x="14" y="10" width="6" height="9"></rect>
                    <rect id="Rectangle-2" x="0" y="20" width="6" height="9"></rect>
                    <rect id="Rectangle-2" x="7" y="20" width="6" height="9"></rect>
                    <rect id="Rectangle-2" x="14" y="20" width="6" height="9"></rect>
                </g>
                <g id="Group-5" transform="translate(188.000000, 464.000000)" fill="#663921">
                    <rect id="Rectangle-2" x="0" y="0" width="6" height="9"></rect>
                    <rect id="Rectangle-2" x="7" y="0" width="6" height="9"></rect>
                    <rect id="Rectangle-2" x="14" y="0" width="6" height="9"></rect>
                    <rect id="Rectangle-2" x="0" y="10" width="6" height="9"></rect>
                    <rect id="Rectangle-2" x="7" y="10" width="6" height="9"></rect>
                    <rect id="Rectangle-2" x="14" y="10" width="6" height="9"></rect>
                    <rect id="Rectangle-2" x="0" y="20" width="6" height="9"></rect>
                    <rect id="Rectangle-2" x="7" y="20" width="6" height="9"></rect>
                    <rect id="Rectangle-2" x="14" y="20" width="6" height="9"></rect>
                </g>
                <g id="Group-5" transform="translate(223.000000, 464.000000)" fill="#663921">
                    <rect id="Rectangle-2" x="0" y="0" width="6" height="9"></rect>
                    <rect id="Rectangle-2" x="7" y="0" width="6" height="9"></rect>
                    <rect id="Rectangle-2" x="14" y="0" width="6" height="9"></rect>
                    <rect id="Rectangle-2" x="0" y="10" width="6" height="9"></rect>
                    <rect id="Rectangle-2" x="7" y="10" width="6" height="9"></rect>
                    <rect id="Rectangle-2" x="14" y="10" width="6" height="9"></rect>
                    <rect id="Rectangle-2" x="0" y="20" width="6" height="9"></rect>
                    <rect id="Rectangle-2" x="7" y="20" width="6" height="9"></rect>
                    <rect id="Rectangle-2" x="14" y="20" width="6" height="9"></rect>
                </g>
                <g id="Group-5" transform="translate(258.000000, 464.000000)" fill="#663921">
                    <rect id="Rectangle-2" x="0" y="0" width="6" height="9"></rect>
                    <rect id="Rectangle-2" x="7" y="0" width="6" height="9"></rect>
                    <rect id="Rectangle-2" x="14" y="0" width="6" height="9"></rect>
                    <rect id="Rectangle-2" x="0" y="10" width="6" height="9"></rect>
                    <rect id="Rectangle-2" x="7" y="10" width="6" height="9"></rect>
                    <rect id="Rectangle-2" x="14" y="10" width="6" height="9"></rect>
                    <rect id="Rectangle-2" x="0" y="20" width="6" height="9"></rect>
                    <rect id="Rectangle-2" x="7" y="20" width="6" height="9"></rect>
                    <rect id="Rectangle-2" x="14" y="20" width="6" height="9"></rect>
                </g>
                <g id="Group-5" transform="translate(346.000000, 464.000000)" fill="#663921">
                    <rect id="Rectangle-2" x="0" y="0" width="6" height="9"></rect>
                    <rect id="Rectangle-2" x="7" y="0" width="6" height="9"></rect>
                    <rect id="Rectangle-2" x="14" y="0" width="6" height="9"></rect>
                    <rect id="Rectangle-2" x="0" y="10" width="6" height="9"></rect>
                    <rect id="Rectangle-2" x="7" y="10" width="6" height="9"></rect>
                    <rect id="Rectangle-2" x="14" y="10" width="6" height="9"></rect>
                    <rect id="Rectangle-2" x="0" y="20" width="6" height="9"></rect>
                    <rect id="Rectangle-2" x="7" y="20" width="6" height="9"></rect>
                    <rect id="Rectangle-2" x="14" y="20" width="6" height="9"></rect>
                </g>
                <g id="Group-5" transform="translate(381.000000, 464.000000)" fill="#663921">
                    <rect id="Rectangle-2" x="0" y="0" width="6" height="9"></rect>
                    <rect id="Rectangle-2" x="7" y="0" width="6" height="9"></rect>
                    <rect id="Rectangle-2" x="14" y="0" width="6" height="9"></rect>
                    <rect id="Rectangle-2" x="0" y="10" width="6" height="9"></rect>
                    <rect id="Rectangle-2" x="7" y="10" width="6" height="9"></rect>
                    <rect id="Rectangle-2" x="14" y="10" width="6" height="9"></rect>
                    <rect id="Rectangle-2" x="0" y="20" width="6" height="9"></rect>
                    <rect id="Rectangle-2" x="7" y="20" width="6" height="9"></rect>
                    <rect id="Rectangle-2" x="14" y="20" width="6" height="9"></rect>
                </g>
                <g id="Group-5" transform="translate(416.000000, 464.000000)" fill="#663921">
                    <rect id="Rectangle-2" x="0" y="0" width="6" height="9"></rect>
                    <rect id="Rectangle-2" x="7" y="0" width="6" height="9"></rect>
                    <rect id="Rectangle-2" x="14" y="0" width="6" height="9"></rect>
                    <rect id="Rectangle-2" x="0" y="10" width="6" height="9"></rect>
                    <rect id="Rectangle-2" x="7" y="10" width="6" height="9"></rect>
                    <rect id="Rectangle-2" x="14" y="10" width="6" height="9"></rect>
                    <rect id="Rectangle-2" x="0" y="20" width="6" height="9"></rect>
                    <rect id="Rectangle-2" x="7" y="20" width="6" height="9"></rect>
                    <rect id="Rectangle-2" x="14" y="20" width="6" height="9"></rect>
                </g>
                <g id="Group-5" transform="translate(451.000000, 464.000000)" fill="#663921">
                    <rect id="Rectangle-2" x="0" y="0" width="6" height="9"></rect>
                    <rect id="Rectangle-2" x="7" y="0" width="6" height="9"></rect>
                    <rect id="Rectangle-2" x="14" y="0" width="6" height="9"></rect>
                    <rect id="Rectangle-2" x="0" y="10" width="6" height="9"></rect>
                    <rect id="Rectangle-2" x="7" y="10" width="6" height="9"></rect>
                    <rect id="Rectangle-2" x="14" y="10" width="6" height="9"></rect>
                    <rect id="Rectangle-2" x="0" y="20" width="6" height="9"></rect>
                    <rect id="Rectangle-2" x="7" y="20" width="6" height="9"></rect>
                    <rect id="Rectangle-2" x="14" y="20" width="6" height="9"></rect>
                </g>
                <g id="Group-5" transform="translate(486.000000, 464.000000)" fill="#663921">
                    <rect id="Rectangle-2" x="0" y="0" width="6" height="9"></rect>
                    <rect id="Rectangle-2" x="7" y="0" width="6" height="9"></rect>
                    <rect id="Rectangle-2" x="14" y="0" width="6" height="9"></rect>
                    <rect id="Rectangle-2" x="0" y="10" width="6" height="9"></rect>
                    <rect id="Rectangle-2" x="7" y="10" width="6" height="9"></rect>
                    <rect id="Rectangle-2" x="14" y="10" width="6" height="9"></rect>
                    <rect id="Rectangle-2" x="0" y="20" width="6" height="9"></rect>
                    <rect id="Rectangle-2" x="7" y="20" width="6" height="9"></rect>
                    <rect id="Rectangle-2" x="14" y="20" width="6" height="9"></rect>
                </g>
                <g id="Group-5" transform="translate(521.000000, 464.000000)" fill="#663921">
                    <rect id="Rectangle-2" x="0" y="0" width="6" height="9"></rect>
                    <rect id="Rectangle-2" x="7" y="0" width="6" height="9"></rect>
                    <rect id="Rectangle-2" x="14" y="0" width="6" height="9"></rect>
                    <rect id="Rectangle-2" x="0" y="10" width="6" height="9"></rect>
                    <rect id="Rectangle-2" x="7" y="10" width="6" height="9"></rect>
                    <rect id="Rectangle-2" x="14" y="10" width="6" height="9"></rect>
                    <rect id="Rectangle-2" x="0" y="20" width="6" height="9"></rect>
                    <rect id="Rectangle-2" x="7" y="20" width="6" height="9"></rect>
                    <rect id="Rectangle-2" x="14" y="20" width="6" height="9"></rect>
                </g>
                <g id="Group-2" transform="translate(111.000000, 13.000000)">
                    <rect id="Rectangle" fill="#EABB60" x="0" y="190" width="30" height="30"></rect>
                    <circle id="Oval" stroke="#352201" fill="#EABB60" cx="15" cy="205" r="14"></circle>
                    <circle id="Oval" stroke="#EABB60" fill="#A39B86" cx="15" cy="205" r="13"></circle>
                    <circle id="Oval" stroke="#EABB60" fill="#A39B86" cx="15" cy="205" r="10"></circle>
                    <polygon id="Path-6" stroke="#EABB60" points="13.6281736 192.191025 14.8788257 195.102266 16.0555305 192.191025 14.8788257 193.646646"></polygon>
                    <polygon id="Path-6" stroke="#EABB60" transform="translate(26.320007, 204.313766) rotate(-270.000000) translate(-26.320007, -204.313766) " points="25.1063281 202.858146 26.3569802 205.769386 27.533685 202.858146 26.3569802 204.313766"></polygon>
                    <polygon id="Path-6" stroke="#EABB60" transform="translate(14.936644, 216.578422) rotate(-180.000000) translate(-14.936644, -216.578422) " points="13.722966 215.122802 14.9736181 218.034042 16.1503229 215.122802 14.9736181 216.578422"></polygon>
                    <polygon id="Path-6" stroke="#EABB60" transform="translate(3.635155, 204.410155) rotate(-90.000000) translate(-3.635155, -204.410155) " points="2.42147676 202.954535 3.67212885 205.865775 4.84883365 202.954535 3.67212885 204.410155"></polygon>
                    <g id="Group-3" filter="url(#filter-3)" transform="translate(19.000000, 194.000000)" stroke="#EABB60">
                        <polygon id="Path-6" transform="translate(0.820640, 0.841817) rotate(37.000000) translate(-0.820640, -0.841817) " points="0.280894397 0.194475475 0.837083077 1.48915912 1.360386 0.194475475 0.837083077 0.8418173"></polygon>
                        <polygon id="Path-6" transform="translate(5.594233, 5.375249) rotate(65.000000) translate(-5.594233, -5.375249) " points="5.05448755 4.7279072 5.61067623 6.02259085 6.13397915 4.7279072 5.61067623 5.37524902"></polygon>
                    </g>
                    <g id="Group-3" filter="url(#filter-4)" transform="translate(22.334179, 212.477041) rotate(-272.000000) translate(-22.334179, -212.477041) translate(18.834179, 208.977041)" stroke="#EABB60">
                        <polygon id="Path-6" transform="translate(0.820640, 0.841817) rotate(37.000000) translate(-0.820640, -0.841817) " points="0.280894397 0.194475475 0.837083077 1.48915912 1.360386 0.194475475 0.837083077 0.8418173"></polygon>
                        <polygon id="Path-6" transform="translate(5.594233, 5.375249) rotate(65.000000) translate(-5.594233, -5.375249) " points="5.05448755 4.7279072 5.61067623 6.02259085 6.13397915 4.7279072 5.61067623 5.37524902"></polygon>
                    </g>
                    <g id="Group-3" filter="url(#filter-5)" transform="translate(7.276381, 212.118615) rotate(-179.000000) translate(-7.276381, -212.118615) translate(3.776381, 208.618615)" stroke="#EABB60">
                        <polygon id="Path-6" transform="translate(0.820640, 0.841817) rotate(37.000000) translate(-0.820640, -0.841817) " points="0.280894397 0.194475475 0.837083077 1.48915912 1.360386 0.194475475 0.837083077 0.8418173"></polygon>
                        <polygon id="Path-6" transform="translate(5.594233, 5.375249) rotate(65.000000) translate(-5.594233, -5.375249) " points="5.05448755 4.7279072 5.61067623 6.02259085 6.13397915 4.7279072 5.61067623 5.37524902"></polygon>
                    </g>
                    <g id="Group-3" filter="url(#filter-6)" transform="translate(8.220833, 196.890806) rotate(-86.000000) translate(-8.220833, -196.890806) translate(4.720833, 193.390806)" stroke="#EABB60">
                        <polygon id="Path-6" transform="translate(0.820640, 0.841817) rotate(37.000000) translate(-0.820640, -0.841817) " points="0.280894397 0.194475475 0.837083077 1.48915912 1.360386 0.194475475 0.837083077 0.8418173"></polygon>
                        <polygon id="Path-6" transform="translate(5.594233, 5.375249) rotate(65.000000) translate(-5.594233, -5.375249) " points="5.05448755 4.7279072 5.61067623 6.02259085 6.13397915 4.7279072 5.61067623 5.37524902"></polygon>
                    </g>
                    <g id="Group-4" transform="translate(12.000000, 202.000000)" fill="#DBA438">
                        <polygon id="Triangle" points="3.5 0 6 4 1 4"></polygon>
                        <polygon id="Triangle" transform="translate(3.500000, 3.000000) rotate(181.000000) translate(-3.500000, -3.000000) " points="3.5 1 6 5 1 5"></polygon>
                    </g>
                    <polygon id="Path-7" fill="#DBA438" points="15 203.949997 24.4746791 204.330551 23.4769142 203 27 204.677246 23.4769142 206.106712 24.4746791 204.816182 15 205.073696"></polygon>
                    <polygon id="Path-7" fill="#DBA438" transform="translate(18.396306, 209.500023) rotate(59.000000) translate(-18.396306, -209.500023) " points="12.3963057 208.896664 21.8709848 209.277218 20.8732199 207.946667 24.3963057 209.623913 20.8732199 211.053379 21.8709848 209.762849 12.3963057 210.020363"></polygon>
                    <polygon id="Path-8" fill="#E8B95F" points="16 0 16 3.60143426 20 3.60143426 20 0 19.4392086 1.23268395 18.8746909 0 18.3827365 1.23268395 17.8313629 0 17.2891358 1.23268395 16.8095803 0 16.4340255 1.23268395"></polygon>
                </g>
                <polygon id="Path-9" fill="#94B07C" points="53.5 431 37.8800389 446.096632 33 446.096632 33 453.505557 74 453.505557 74 446.096632 68.6841568 446.096632"></polygon>
                <polygon id="Path-9" fill="#94B07C" points="573.5 431 557.880039 446.096632 553 446.096632 553 453.505557 594 453.505557 594 446.096632 588.684157 446.096632"></polygon>
                <polygon id="Path-9" fill="#94B07C" points="310.53824 425 300.222787 435.19959 297 435.19959 297 440.20521 324.07648 440.20521 324.07648 435.19959 320.565887 435.19959"></polygon>
                <g id="Group-9" transform="translate(295.000000, 442.000000)">
                    <rect id="Rectangle-5" fill="#E7B85E" x="4" y="0" width="23" height="38"></rect>
                    <path d="M15.4555317,2.42271774 C13.8327502,2.67561012 12.68292,3.15735358 12.006041,3.86794813 C11.329162,4.57854268 10.9888942,5.81745979 10.9852376,7.58469946 L8.48040159,7.58469946 L8.48040159,34.3726186 L22.7886657,34.3726186 L22.7886657,7.58469946 L20.5148106,7.58469946 C20.5497549,5.86444937 20.1596918,4.62553226 19.3446214,3.86794813 C18.529551,3.110364 17.2331878,2.62862054 15.4555317,2.42271774 Z" id="Path-10" stroke="#301E00" fill="#DBA438"></path>
                    <path d="M15.6039657,5.8563204 C15.0405555,5.8563204 14.6960794,6.93262286 14.5,7.64193516 C14.3692804,8.11481003 14.3692804,8.85079488 14.5,9.84988972 C12.5905781,11.5017339 11.4285474,12.7170221 11.0139081,13.4957543 C10.5992687,14.2744865 10.5992687,15.4996471 11.0139081,17.171236 L12.1301765,18.5783443 L12.1301765,30.0078781 L19.0662043,30.0078781 L19.0662043,18.5783443 L20.0645967,17.171236 C20.4983884,15.6345036 20.4983884,14.409343 20.0645967,13.4957543 C19.6308049,12.5821656 18.569032,11.3668774 16.8792779,9.84988972 C17.0276264,8.84246518 17.0276264,8.10648032 16.8792779,7.64193516 C16.6567551,6.94511741 16.167376,5.8563204 15.6039657,5.8563204 Z" id="Path-11" fill="#E8B95F"></path>
                    <path d="M0.250367651,104.105979 L0.250367651,144.852313 L35.635919,144.852313 L35.635919,104.105979 C32.0193804,94.2569198 26.1217885,89.3323901 17.9431433,89.3323901 C9.76449808,89.3323901 3.8669062,94.2569198 0.250367651,104.105979 Z" id="Path-12" fill="#663921"></path>
                </g>
                <polygon id="Path-13" fill="#333333" points="108.852963 362.468058 97.4817466 351.922229 88.4922601 351.922229 1.7229065 400.044135 0.0779622181 395.596607 0.0779622181 402.148405 629.999524 402.148405 629.999524 395.596607 628.112093 400.044135 527.627099 351.922229 519.208854 351.922229 507.205774 362.468058"></polygon>
                <g id="Group-8" transform="translate(295.000000, 327.000000)">
                    <path d="M4.57945178,33.3643802 L26.8919754,33.3643802 L26.8919754,25.3783199 C29.3978754,24.7634679 30.6508254,23.1189109 30.6508254,20.4446487 C30.6508254,17.7703866 29.3978754,16.4332555 26.8919754,16.4332555 C26.2254044,13.0467555 25.3012007,10.6053668 24.1193645,9.10908945 C22.9375282,7.61281214 21.280179,6.51488186 19.1473167,5.81529863 C18.9536627,2.12261055 17.5843447,0.276266519 15.0393628,0.276266519 C12.4943809,0.276266519 11.0745818,2.12261055 10.7799656,5.81529863 C8.49827332,6.99823528 6.85798035,8.4059299 5.85908663,10.0383825 C4.86019291,11.6708351 4.43364796,13.8024594 4.57945178,16.4332555 C1.8804305,16.4332555 0.530919857,17.7419136 0.530919857,20.3592297 C0.530919857,22.9765458 1.8804305,24.6495759 4.57945178,25.3783199 L4.57945178,33.3643802 Z" id="Path-14" fill="#E7B85E"></path>
                    <path d="M6.20904674,31.7009239 L24.8973932,31.7009239 L24.8973932,24.0806902 C27.5760538,23.5997624 28.9153841,22.4149772 28.9153841,20.5263346 C28.9153841,18.6376921 27.710723,17.8132702 25.3014008,18.0530691 C24.9232761,14.6375743 24.2045047,12.2591826 23.1450864,10.917894 C22.0856681,9.57660533 20.2903444,8.27130968 17.7591153,7.00200702 C18.0092846,3.89042672 17.0748794,2.33463657 14.9558996,2.33463657 C12.8369198,2.33463657 11.89018,3.89042672 12.1156801,7.00200702 C9.84534987,8.14923984 8.26247201,9.45453549 7.36704654,10.917894 C6.47162108,12.3812525 6.08562115,14.7596442 6.20904674,18.0530691 C3.60765871,18.0530691 2.30696469,18.8774909 2.30696469,20.5263346 C2.30696469,22.1751783 3.60765871,23.3599635 6.20904674,24.0806902 L6.20904674,31.7009239 Z" id="Path-14" stroke="#301E00" fill="#DBA438"></path>
                    <rect id="Rectangle-6" fill="#94B07C" x="8" y="18" width="3" height="9"></rect>
                    <rect id="Rectangle-6" fill="#94B07C" x="20" y="18" width="3" height="9"></rect>
                    <rect id="Rectangle-6" fill="#94B07C" x="13" y="16" width="5" height="11"></rect>
                    <polygon id="Triangle-2" fill="#94B07C" points="15.5 9 18 15 13 15"></polygon>
                    <polygon id="Triangle-2" fill="#94B07C" points="9.5 13 11 17 8 17"></polygon>
                    <polygon id="Triangle-2" fill="#94B07C" points="21.5 13 23 17 20 17"></polygon>
                </g>
            </g>
        </g>
    </g>
</svg>